<svg width="26" height="27" fill="none" xmlns="http://www.w3.org/2000/svg"><path d="M15.167 2.198s2.383.216 5.417 3.25c3.033 3.033 3.25 5.416 3.25 5.416M15.39 6.028s1.073.306 2.682 1.915c1.608 1.609 1.915 2.681 1.915 2.681M4.34 8.625c-.078 2.067.445 5.578 3.966 9.1.85.849 1.699 1.524 2.527 2.058M5.999 5.38c1.509-1.51 3.917-1.307 4.875.41l.703 1.26c.634 1.137.38 2.628-.62 3.628 0 0-1.212 1.212.986 3.41 2.197 2.197 3.41.986 3.41.986 1-1 2.49-1.255 3.628-.62l1.26.703c1.716.958 1.919 3.366.41 4.875-.907.907-2.018 1.612-3.245 1.659a10.61 10.61 0 0 1-3.323-.415" stroke="#F4F4F4" stroke-width="1.125" stroke-linecap="round"/></svg>