<svg width="77" height="77" fill="none" xmlns="http://www.w3.org/2000/svg"><path fill="#0B0B0B" d="M0 0h76.062v76.062H0z"/><path fill-rule="evenodd" clip-rule="evenodd" d="M75.167 38.031c0 20.51-16.626 37.136-37.136 37.136S.895 58.541.895 38.031 17.52.895 38.03.895 75.167 17.52 75.167 38.03Zm.895 0c0 21.004-17.027 38.031-38.03 38.031C17.026 76.062 0 59.035 0 38.032 0 17.026 17.027 0 38.031 0c21.004 0 38.031 17.027 38.031 38.031Zm-10.517 0c0 15.196-12.318 27.514-27.514 27.514S10.517 53.227 10.517 38.031c0-15.195 12.318-27.514 27.514-27.514s27.514 12.319 27.514 27.514Zm2.237 0c0 16.431-13.32 29.751-29.75 29.751-16.432 0-29.752-13.32-29.752-29.75C8.28 21.6 21.6 8.28 38.031 8.28s29.75 13.32 29.75 29.751Zm-29.75 23.725c13.102 0 23.724-10.622 23.724-23.725 0-13.103-10.622-23.725-23.725-23.725-13.103 0-23.725 10.622-23.725 23.725 0 13.103 10.622 23.725 23.725 23.725Zm0 1.79c14.09 0 25.514-11.424 25.514-25.515 0-14.091-11.424-25.514-25.515-25.514-14.091 0-25.514 11.423-25.514 25.514S23.94 63.546 38.03 63.546ZM57.295 38.03c0 10.64-8.625 19.265-19.265 19.265s-19.265-8.625-19.265-19.265 8.625-19.265 19.265-19.265 19.265 8.625 19.265 19.265Zm2.013 0c0 11.752-9.526 21.278-21.278 21.278-11.752 0-21.278-9.526-21.278-21.278 0-11.751 9.526-21.278 21.278-21.278 11.752 0 21.278 9.527 21.278 21.278ZM38.031 52.836c8.177 0 14.805-6.628 14.805-14.805 0-8.176-6.628-14.805-14.805-14.805s-14.805 6.629-14.805 14.805c0 8.177 6.628 14.805 14.805 14.805Zm0 2.237c9.412 0 17.042-7.63 17.042-17.042 0-9.412-7.63-17.042-17.042-17.042-9.412 0-17.042 7.63-17.042 17.042 0 9.412 7.63 17.042 17.042 17.042ZM49.24 38.03c0 6.19-5.019 11.209-11.209 11.209-6.19 0-11.208-5.019-11.208-11.209 0-6.19 5.018-11.208 11.208-11.208S49.24 31.84 49.24 38.03Zm1.789 0c0 7.179-5.82 12.998-12.998 12.998-7.178 0-12.998-5.82-12.998-12.998 0-7.178 5.82-12.998 12.998-12.998 7.179 0 12.998 5.82 12.998 12.998Zm-12.998 7.134a7.134 7.134 0 1 0 0-14.267 7.134 7.134 0 0 0 0 14.267Zm0 2.013a9.147 9.147 0 1 0 0-18.294 9.147 9.147 0 0 0 0 18.294Zm3.475-9.147a3.475 3.475 0 1 1-6.95 0 3.475 3.475 0 0 1 6.95 0Zm2.013 0a5.488 5.488 0 1 1-10.976 0 5.488 5.488 0 0 1 10.976 0Z" fill="#F4F4F4"/><path d="M38.062 42.722a4.89 4.89 0 0 1-2.672-.792 4.723 4.723 0 0 1-1.771-2.108 4.596 4.596 0 0 1-.274-2.714 4.665 4.665 0 0 1 1.316-2.405 4.846 4.846 0 0 1 2.463-1.285 4.916 4.916 0 0 1 2.778.267c.879.356 1.63.958 2.158 1.73.529.773.81 1.68.81 2.61h-4.808v4.697Z" stroke="#0B0B0B" stroke-width="3.081"/><path d="M38.062 45.853a8.034 8.034 0 0 1-3.515-.809 7.918 7.918 0 0 1-2.79-2.26 7.778 7.778 0 0 1-1.485-3.243 7.723 7.723 0 0 1 .124-3.557 7.795 7.795 0 0 1 1.709-3.135 7.938 7.938 0 0 1 2.94-2.066 8.042 8.042 0 0 1 7.014.477l-3.997 6.765v7.828Z" stroke="#0B0B0B" stroke-width="3.081"/><path d="M38.062 49.88a12.024 12.024 0 0 1-8.461-3.473 11.8 11.8 0 0 1-3.505-8.382 11.8 11.8 0 0 1 3.505-8.383 12.024 12.024 0 0 1 8.461-3.472v23.709Z" stroke="#0B0B0B" stroke-width="3.081"/><path d="M38.062 53.906c-3.47 0-6.847-1.121-9.62-3.194a15.879 15.879 0 0 1-5.75-8.297 15.776 15.776 0 0 1 .432-10.062c1.24-3.22 3.5-5.95 6.44-7.782l8.498 13.454v15.88Z" stroke="#0B0B0B" stroke-width="3.081"/><path d="M38.062 58.155a20.327 20.327 0 0 1-10.656-3.015 20.172 20.172 0 0 1-7.464-8.143 20.035 20.035 0 0 1 1.967-21.105l16.153 12.133v20.13Z" stroke="#0B0B0B" stroke-width="3.081"/><path d="M38.062 62.405c-3.925 0-7.792-.939-11.276-2.738a24.459 24.459 0 0 1-8.745-7.598 24.317 24.317 0 0 1-4.247-10.753 24.276 24.276 0 0 1 1.203-11.492l23.065 8.2v24.381Z" stroke="#0B0B0B" stroke-width="2.46"/><path d="M38.062 66.431c-3.937 0-7.832-.812-11.44-2.385a28.517 28.517 0 0 1-9.517-6.756 28.384 28.384 0 0 1-5.998-9.992A28.302 28.302 0 0 1 9.636 35.75l28.426 2.276V66.43Z" stroke="#0B0B0B" stroke-width="3.081"/><path d="M38.062 70.234a32.39 32.39 0 0 1-20.53-7.332A32.19 32.19 0 0 1 6.35 44.245l31.712-6.22v32.209Z" stroke="#0B0B0B" stroke-width="3.081"/></svg>